<?xml version="1.0" encoding="UTF-8"?>
<svg version="1.1" xmlns="http://www.w3.org/2000/svg" width="750" height="750">
<path d="M0 0 C11.69220224 -0.04645322 23.38438232 -0.08193505 35.07665825 -0.10362434 C40.50654244 -0.11403699 45.93636323 -0.12815003 51.36621094 -0.15087891 C56.6117019 -0.1726973 61.85713209 -0.18458755 67.10266495 -0.18975449 C69.09840984 -0.19343413 71.09415161 -0.20061937 73.08987045 -0.21146011 C75.89706214 -0.22609472 78.70400644 -0.22797297 81.51123047 -0.22705078 C82.32619492 -0.23424133 83.14115936 -0.24143188 83.9808197 -0.24884033 C89.84428882 -0.2281579 95.29336889 0.67787609 101 2 C101 2.66 101 3.32 101 4 C101.721875 4.12375 102.44375 4.2475 103.1875 4.375 C105.95721894 4.9904931 108.3970354 5.88444374 111 7 C111 7.66 111 8.32 111 9 C111.556875 9.226875 112.11375 9.45375 112.6875 9.6875 C118.64082097 13.0664119 122.70148314 18.71953635 125.1875 25 C128.1446447 37.04170635 127.78828756 49.90578217 122 61 C121.01 61.495 121.01 61.495 120 62 C119.62875 63.0209375 119.62875 63.0209375 119.25 64.0625 C114.90911054 74.26359024 105.98078137 80.95298745 96.8828125 86.73828125 C94.87550067 87.99531804 94.87550067 87.99531804 93 90 C93.50789062 90.27972656 94.01578125 90.55945313 94.5390625 90.84765625 C103.80702002 96.24528694 108.0889171 102.34157193 111.08984375 112.734375 C113.30334188 121.80993037 113.40195347 132.26070611 110 141 C109.64679688 141.98742187 109.29359375 142.97484375 108.9296875 143.9921875 C108.58164062 144.94351563 108.23359375 145.89484375 107.875 146.875 C107.52179688 147.84179688 107.16859375 148.80859375 106.8046875 149.8046875 C106.53914062 150.52914062 106.27359375 151.25359375 106 152 C105.34 152 104.68 152 104 152 C103.71125 152.928125 103.4225 153.85625 103.125 154.8125 C102 158 102 158 100 161 C99.34 161 98.68 161 98 161 C97.79375 161.556875 97.5875 162.11375 97.375 162.6875 C95.48105476 165.87277155 92.88323975 167.70517652 90 170 C89.46375 170.556875 88.9275 171.11375 88.375 171.6875 C86.73923088 173.24891598 85.01550454 173.99224773 83 175 C82.56042969 175.474375 82.12085938 175.94875 81.66796875 176.4375 C79.66879719 178.31026024 77.87055435 179.03621186 75.3125 180 C73.97445312 180.50660156 73.97445312 180.50660156 72.609375 181.0234375 C71.74828125 181.34570312 70.8871875 181.66796875 70 182 C69.32453125 182.28101563 68.6490625 182.56203125 67.953125 182.8515625 C63.13666962 184.82193061 58.35874332 185.76492883 53.22265625 186.5703125 C51.03537496 186.77794553 51.03537496 186.77794553 50 188 C46.98649762 188.09529612 43.99595894 188.12551904 40.98217773 188.11352539 C40.03593536 188.11367142 39.08969299 188.11381744 38.11477661 188.1139679 C34.97102608 188.11326836 31.82733399 188.10547409 28.68359375 188.09765625 C26.51025932 188.09579221 24.33692448 188.09436824 22.16358948 188.09336853 C16.43098805 188.08954221 10.69841177 188.07971097 4.96582031 188.06866455 C-0.87890279 188.05845287 -6.72362993 188.05387143 -12.56835938 188.04882812 C-24.045584 188.0380888 -35.52278991 188.02101102 -47 188 C-48.1409157 184.13999456 -47.55864342 182.72428328 -46 179 C-45.05688688 175.13091329 -44.34536827 171.20973995 -43.58789062 167.30078125 C-42.60030727 162.38253747 -41.31079045 157.72832546 -39.66235352 152.99121094 C-38.86812607 150.60355188 -38.36022107 148.22886921 -37.9375 145.75 C-37.50897085 143.25228727 -37.04513933 141.1080322 -36.06640625 138.765625 C-34.5887448 134.93344807 -33.83413496 131.01427449 -33 127 C-31.98498548 122.1152426 -30.86590261 117.63490208 -29 113 C-28.41149225 110.39490836 -27.86684588 107.80984157 -27.375 105.1875 C-27.2409375 104.49462891 -27.106875 103.80175781 -26.96875 103.08789062 C-26.64141712 101.39277391 -26.32009406 99.69649854 -26 98 C-25.34 98 -24.68 98 -24 98 C-23.87625 96.72125 -23.7525 95.4425 -23.625 94.125 C-22.78088952 86.64524328 -21.29851232 79.61210637 -18.796875 72.515625 C-17.18701512 67.43351832 -16.14977419 62.20135945 -15 57 C-19.29 57 -23.58 57 -28 57 C-27 53 -27 53 -26 50 C-25.34 50 -24.68 50 -24 50 C-23.01 46.7 -22.02 43.4 -21 40 C-20.34 40 -19.68 40 -19 40 C-18.4740625 38.1746875 -18.4740625 38.1746875 -17.9375 36.3125 C-16.19305808 31.07917423 -13.64895985 26.44633802 -10.98046875 21.6328125 C-8.7461277 17.58370378 -6.68193161 13.45387602 -4.625 9.3125 C-4.27928955 8.61697021 -3.9335791 7.92144043 -3.57739258 7.20483398 C-2.71683941 5.47059436 -1.85826627 3.73537253 -1 2 C-0.67 1.34 -0.34 0.68 0 0 Z M42 50 C41.67 53.63 41.34 57.26 41 61 C40.34 61 39.68 61 39 61 C38.66179834 62.5823006 38.32964061 64.16589375 38 65.75 C37.814375 66.63171875 37.62875 67.5134375 37.4375 68.421875 C36.88846325 71.22143965 36.88846325 71.22143965 37 75 C40.33285926 75.14685185 43.66487345 75.23457648 47 75.3125 C47.93457031 75.35439453 48.86914062 75.39628906 49.83203125 75.43945312 C56.46180115 75.55535819 60.94350945 74.42366124 66 70 C70.03852406 65.31232484 70.41637389 60.93332798 70 55 C68.68 54.34 67.36 53.68 66 53 C66 52.34 66 51.68 66 51 C61.08497242 49.70764285 56.22709898 49.88864483 51.1875 49.9375 C49.86202148 49.94426758 49.86202148 49.94426758 48.50976562 49.95117188 C46.33981441 49.96290134 44.16989828 49.98083505 42 50 Z M27 110 C25.22332193 117.16045867 25.22332193 117.16045867 25 124 C24.34 124 23.68 124 23 124 C22.01 128.95 21.02 133.9 20 139 C23.47976226 138.88511645 26.95843714 138.7583826 30.4375 138.625 C31.41138672 138.5940625 32.38527344 138.563125 33.38867188 138.53125 C44.22949447 138.16342172 44.22949447 138.16342172 54 134 C54 133.34 54 132.68 54 132 C54.61875 131.773125 55.2375 131.54625 55.875 131.3125 C58.12316947 130.13708376 58.12316947 130.13708376 59.3125 127.9375 C60.28235076 123.79359219 60.0825485 120.11521982 59 116 C57.24905348 113.4094273 57.24905348 113.4094273 55 112 C54.34 112 53.68 112 53 112 C53 111.34 53 110.68 53 110 C44.42 110 35.84 110 27 110 Z " fill="#005FAE" transform="translate(316,280)"/>
<path d="M0 0 C30.03 0 60.06 0 91 0 C91.309375 7.074375 91.61875 14.14875 91.9375 21.4375 C92.03788574 23.72453857 92.13827148 26.01157715 92.24169922 28.36791992 C92.6234346 37.09478199 93.00311234 45.8213034 93.3203125 54.55078125 C93.36293213 55.71488525 93.40555176 56.87898926 93.44946289 58.07836914 C93.52298295 60.14121802 93.59268814 62.20420761 93.65795898 64.26733398 C93.68962158 65.15364502 93.72128418 66.03995605 93.75390625 66.953125 C93.77783447 67.69723633 93.8017627 68.44134766 93.82641602 69.20800781 C93.90173944 71.10255699 93.90173944 71.10255699 95 73 C95.17611513 75.72653501 95.29510439 78.43256582 95.37304688 81.16235352 C95.40084732 82.00650314 95.42864777 82.85065277 95.45729065 83.72038269 C95.51718706 85.55805997 95.57491333 87.39580894 95.63075256 89.23361397 C95.71931283 92.14742433 95.81345866 95.06100676 95.90905762 97.97459412 C96.11124146 104.17040163 96.30577775 110.36643868 96.5 116.5625 C96.72530786 123.71911702 96.95375935 130.87561902 97.18751526 138.03196526 C97.27968308 140.89277054 97.36745422 143.75368802 97.45495605 146.61463928 C97.51209536 148.38706068 97.56941829 150.15947617 97.62695312 151.93188477 C97.66128197 153.11293289 97.66128197 153.11293289 97.69630432 154.31784058 C97.81692618 157.91142611 98.04917581 161.37040588 98.52331543 164.9417572 C99.24460422 172.59556868 99 180.31227682 99 188 C78.54 188 58.08 188 37 188 C37 177.44 37 166.88 37 156 C24.13 156 11.26 156 -2 156 C-2.33 157.32 -2.66 158.64 -3 160 C-3.67343596 162.08792194 -4.36197124 164.17101143 -5.0625 166.25 C-5.42472656 167.32765625 -5.78695312 168.4053125 -6.16015625 169.515625 C-6.43730469 170.33546875 -6.71445312 171.1553125 -7 172 C-7.66 172 -8.32 172 -9 172 C-9.20496094 172.75925781 -9.40992188 173.51851562 -9.62109375 174.30078125 C-9.89050781 175.29464844 -10.15992188 176.28851563 -10.4375 177.3125 C-10.70433594 178.29863281 -10.97117187 179.28476562 -11.24609375 180.30078125 C-11.78079425 182.21517526 -12.37144538 184.11433615 -13 186 C-13.66 186 -14.32 186 -15 186 C-15 186.66 -15 187.32 -15 188 C-36.78 188 -58.56 188 -81 188 C-79.96494645 181.78967868 -79.96494645 181.78967868 -77 178 C-75.50031932 175.13181464 -74.16132859 172.19156832 -72.8125 169.25 C-72.44447266 168.45722656 -72.07644531 167.66445313 -71.69726562 166.84765625 C-70.79400508 164.90036728 -69.8964359 162.95044011 -69 161 C-68.34 161 -67.68 161 -67 161 C-66.87625 160.278125 -66.7525 159.55625 -66.625 158.8125 C-66.0095069 156.04278106 -65.11555626 153.6029646 -64 151 C-63.34 151 -62.68 151 -62 151 C-61.8453125 149.9790625 -61.8453125 149.9790625 -61.6875 148.9375 C-60.85274981 145.37084011 -59.50527246 142.33777806 -58 139 C-57.34 139 -56.68 139 -56 139 C-55.87625 138.278125 -55.7525 137.55625 -55.625 136.8125 C-55.0095069 134.04278106 -54.11555626 131.6029646 -53 129 C-52.34 129 -51.68 129 -51 129 C-50.87625 128.278125 -50.7525 127.55625 -50.625 126.8125 C-50.0095069 124.04278106 -49.11555626 121.6029646 -48 119 C-47.34 119 -46.68 119 -46 119 C-45.896875 118.319375 -45.79375 117.63875 -45.6875 116.9375 C-44.85274981 113.37084011 -43.50527246 110.33777806 -42 107 C-41.34 107 -40.68 107 -40 107 C-39.86948242 106.41226807 -39.73896484 105.82453613 -39.60449219 105.21899414 C-38.65528092 101.73459139 -36.896395 98.63415014 -35.25 95.4375 C-31.99400605 89.03092197 -28.89869208 82.57780125 -26 76 C-25.34 76 -24.68 76 -24 76 C-23.01 72.7 -22.02 69.4 -21 66 C-20.34 66 -19.68 66 -19 66 C-18.01 62.7 -17.02 59.4 -16 56 C-20.29 55.67 -24.58 55.34 -29 55 C-26.21734986 45.98951382 -26.21734986 45.98951382 -23 42 C-21.57872119 39.37655619 -20.29927325 36.68548672 -19 34 C-18.2520429 32.49898029 -17.5021254 30.99893542 -16.75 29.5 C-16.1725 28.345 -15.595 27.19 -15 26 C-14.34 26 -13.68 26 -13 26 C-12.814375 25.1646875 -12.814375 25.1646875 -12.625 24.3125 C-11.94023145 21.77885636 -11.00866237 19.42078968 -10 17 C-9.34 17 -8.68 17 -8 17 C-7.81824219 16.39671875 -7.63648438 15.7934375 -7.44921875 15.171875 C-6.10726136 10.90513869 -4.93755198 7.44843059 -2 4 C-1.34 2.68 -0.68 1.36 0 0 Z M36 64 C35.17934931 65.87144695 34.3688416 67.74734336 33.5625 69.625 C33.11003906 70.66914063 32.65757812 71.71328125 32.19140625 72.7890625 C31.04198295 75.88685251 30.42688777 78.73210054 30 82 C29.34 82 28.68 82 28 82 C27.49632243 83.45706726 26.99717444 84.91570096 26.5 86.375 C26.2215625 87.18710937 25.943125 87.99921875 25.65625 88.8359375 C24.90326695 90.94209242 24.90326695 90.94209242 25 93 C24.34 93 23.68 93 23 93 C22.49440092 94.43554025 21.9957251 95.8735202 21.5 97.3125 C21.2215625 98.11300781 20.943125 98.91351563 20.65625 99.73828125 C19.86066893 102.08769422 19.86066893 102.08769422 20 105 C19.34 105 18.68 105 18 105 C17.67 106.65 17.34 108.3 17 110 C23.6 110 30.2 110 37 110 C37 94.82 37 79.64 37 64 C36.67 64 36.34 64 36 64 Z " fill="#005FAE" transform="translate(641,280)"/>
<path d="M0 0 C4.3177458 0.50797009 8.03302114 1.19682779 12 3 C12 3.66 12 4.32 12 5 C14.97 5.99 17.94 6.98 21 8 C21 8.66 21 9.32 21 10 C21.62648438 10.20496094 22.25296875 10.40992188 22.8984375 10.62109375 C23.71570313 10.89050781 24.53296875 11.15992188 25.375 11.4375 C26.18710937 11.70433594 26.99921875 11.97117187 27.8359375 12.24609375 C30 13 30 13 32 14 C32 14.66 32 15.32 32 16 C32.7425 16.12375 33.485 16.2475 34.25 16.375 C36.80141485 16.95486701 38.7267573 17.73708739 41 19 C40.49032508 23.95434006 38.81997061 27.51378804 36.25 31.6875 C33.09146108 36.97978544 30.38698361 42.28991687 28.0078125 47.98828125 C27 50 27 50 25 51 C24.09656316 52.88263881 24.09656316 52.88263881 23.375 55.0625 C23.11460937 55.79597656 22.85421875 56.52945313 22.5859375 57.28515625 C22.39257812 57.85105469 22.19921875 58.41695313 22 59 C21.34 59 20.68 59 20 59 C19.62875 60.2684375 19.62875 60.2684375 19.25 61.5625 C17.86026373 65.38427474 16.08879162 68.51868063 14 72 C9.25 71.125 9.25 71.125 7 70 C7 69.34 7 68.68 7 68 C6.175 67.7525 5.35 67.505 4.5 67.25 C1.22200953 66.07928912 -1.64675882 64.68058386 -4.6796875 63 C-12.43248252 59.65872807 -19.98943932 59.6645967 -28.3125 59.6875 C-29.47201172 59.67138672 -30.63152344 59.65527344 -31.82617188 59.63867188 C-44.07162121 59.63178854 -55.47692934 62.06993577 -64.75 70.5 C-65.4925 71.325 -66.235 72.15 -67 73 C-67.845625 73.7425 -68.69125 74.485 -69.5625 75.25 C-72.71719717 78.80914552 -74.28561236 82.60388868 -76 87 C-76.66 87 -77.32 87 -78 87 C-80.84528853 98.76221954 -81.74055462 112.36271895 -78 124 C-77.34 124.33 -76.68 124.66 -76 125 C-75.360625 125.969375 -74.72125 126.93875 -74.0625 127.9375 C-72.17634782 131.15707965 -72.17634782 131.15707965 -69 133 C-69 133.66 -69 134.32 -69 135 C-68.14728516 135.27263672 -68.14728516 135.27263672 -67.27734375 135.55078125 C-63.54494685 136.76583533 -59.96248398 138.01681752 -56.375 139.625 C-42.80178768 145.15482724 -26.47524746 142.11914568 -13.3125 136.8125 C-12.52488281 136.46832031 -11.73726562 136.12414062 -10.92578125 135.76953125 C-9 135 -9 135 -7 135 C-7 134.34 -7 133.68 -7 133 C-5.75539217 132.32332002 -4.50403104 131.65905281 -3.25 131 C-2.55390625 130.62875 -1.8578125 130.2575 -1.140625 129.875 C1 129 1 129 5 129 C5 129.99 5 130.98 5 132 C4.34 132.33 3.68 132.66 3 133 C2.09274566 135.11327425 2.09274566 135.11327425 1.375 137.5625 C1.11460937 138.38878906 0.85421875 139.21507812 0.5859375 140.06640625 C0.29589844 141.02353516 0.29589844 141.02353516 0 142 C-0.66 142 -1.32 142 -2 142 C-2.30744141 143.03060547 -2.30744141 143.03060547 -2.62109375 144.08203125 C-3.02521484 145.43361328 -3.02521484 145.43361328 -3.4375 146.8125 C-3.70433594 147.70582031 -3.97117187 148.59914063 -4.24609375 149.51953125 C-4.80387873 151.35473055 -5.39344575 153.18033726 -6 155 C-6.66 155 -7.32 155 -8 155 C-8.99 158.3 -9.98 161.6 -11 165 C-11.66 165 -12.32 165 -13 165 C-13.08765625 165.63679687 -13.1753125 166.27359375 -13.265625 166.9296875 C-14.29005599 171.21268091 -15.99138784 175.0970023 -17.75 179.125 C-18.08515625 179.93582031 -18.4203125 180.74664062 -18.765625 181.58203125 C-20.25046609 184.98479208 -21.41045685 187.48194803 -24.22265625 189.953125 C-27.99005947 191.37318697 -31.71545146 192.03205637 -35.6875 192.625 C-40.99850377 193.28607754 -40.99850377 193.28607754 -46 195 C-61.83713747 196.5478583 -76.73621742 193.97132699 -92 190 C-93.33300643 189.66536177 -94.66623138 189.33158732 -96 189 C-96 188.34 -96 187.68 -96 187 C-97.051875 186.8453125 -97.051875 186.8453125 -98.125 186.6875 C-104.12032959 185.25383423 -110.10901884 181.7613383 -115 178 C-115 177.34 -115 176.68 -115 176 C-115.8353125 175.6596875 -115.8353125 175.6596875 -116.6875 175.3125 C-119.6865221 173.61035232 -121.64499245 171.52322238 -124 169 C-124.73089844 168.24203125 -124.73089844 168.24203125 -125.4765625 167.46875 C-130.8446615 161.63266288 -134.69706326 154.87366075 -136 147 C-136.66 147 -137.32 147 -138 147 C-138.46512062 144.8139331 -138.92158267 142.62602426 -139.375 140.4375 C-139.63023437 139.21933594 -139.88546875 138.00117188 -140.1484375 136.74609375 C-140.43771672 135.16504549 -140.72070138 133.58284186 -141 132 C-141.20834473 130.90631104 -141.41668945 129.81262207 -141.63134766 128.68579102 C-143.2675405 118.85507432 -142.52207053 110.74397837 -140.625 101.0625 C-140.37291262 99.68592749 -140.12290347 98.30897275 -139.875 96.93164062 C-139.27018257 93.61677587 -138.64507677 90.30722193 -138 87 C-137.34 87 -136.68 87 -136 87 C-135.896875 86.195625 -135.79375 85.39125 -135.6875 84.5625 C-134.84899627 80.21752614 -133.47178341 76.16542473 -132 72 C-131.34 72 -130.68 72 -130 72 C-129.81824219 71.31292969 -129.63648438 70.62585938 -129.44921875 69.91796875 C-129.19785156 69.01691406 -128.94648438 68.11585938 -128.6875 67.1875 C-128.44386719 66.29417969 -128.20023437 65.40085937 -127.94921875 64.48046875 C-126.96627413 61.91186861 -126.01484345 60.80473945 -124 59 C-123.649375 58.29875 -123.29875 57.5975 -122.9375 56.875 C-122 55 -122 55 -120 54 C-119.03689182 52.30625803 -118.07608106 50.61112058 -117.1328125 48.90625 C-114.2374445 44.03404454 -110.46339155 40.45912845 -106 37 C-105.113125 36.0925 -104.22625 35.185 -103.3125 34.25 C-101 32 -101 32 -99 32 C-98.505 30.515 -98.505 30.515 -98 29 C-95.65049449 26.89417868 -92.98387675 25.20697879 -90.375 23.4375 C-89.32505859 22.6959668 -89.32505859 22.6959668 -88.25390625 21.93945312 C-83.9056645 18.95860837 -80.15204275 17.14264465 -75 16 C-75 15.34 -75 14.68 -75 14 C-73.23141309 13.32739649 -71.46003984 12.66211605 -69.6875 12 C-68.70136719 11.62875 -67.71523438 11.2575 -66.69921875 10.875 C-64 10 -64 10 -61 10 C-61 9.34 -61 8.68 -61 8 C-58.93918639 7.49309416 -56.87626474 6.99475381 -54.8125 6.5 C-53.66394531 6.2215625 -52.51539063 5.943125 -51.33203125 5.65625 C-48.43181171 5.08504615 -45.93903615 4.86716221 -43 5 C-43 4.34 -43 3.68 -43 3 C-36.02822864 2.08780562 -29.21461101 1.84792057 -22.1875 1.875 C-20.65319336 1.86919922 -20.65319336 1.86919922 -19.08789062 1.86328125 C-18.10369141 1.86457031 -17.11949219 1.86585938 -16.10546875 1.8671875 C-15.22012451 1.86831543 -14.33478027 1.86944336 -13.42260742 1.87060547 C-11.14353152 1.9923338 -9.18449772 2.36099079 -7 3 C-7 3.66 -7 4.32 -7 5 C-5.68 5 -4.36 5 -3 5 C-2.67 4.01 -2.34 3.02 -2 2 C-1.34 2 -0.68 2 0 2 C0 1.34 0 0.68 0 0 Z " fill="#005FAE" transform="translate(574,279)"/>
<path d="M0 0 C4.52719138 -0.21558054 7.76813451 0.42342266 12 2 C13.05574219 2.29197266 13.05574219 2.29197266 14.1328125 2.58984375 C21.98828092 4.83996945 26.78367408 8.5177824 30.875 15.625 C33.80867377 21.16206639 34.15863131 25.83510299 34.125 32.0625 C34.12886719 32.78244141 34.13273437 33.50238281 34.13671875 34.24414062 C34.13080799 37.42708639 34.01350713 39.95947862 33 43 C32.34 43 31.68 43 31 43 C30.62875 44.11375 30.62875 44.11375 30.25 45.25 C28.26979021 49.60646155 26.22536458 51.52870593 21.75 53.25 C20.8425 53.4975 19.935 53.745 19 54 C19 54.66 19 55.32 19 56 C18.41621582 56.13051758 17.83243164 56.26103516 17.23095703 56.39550781 C14.52697591 57.00517147 11.82605804 57.62751897 9.125 58.25 C8.2071875 58.45496094 7.289375 58.65992188 6.34375 58.87109375 C0.64659668 60.19508009 -4.63389666 61.90744599 -10.00830078 64.22167969 C-12 65 -12 65 -14 65 C-14 65.66 -14 66.32 -14 67 C-15.5390625 68.0078125 -15.5390625 68.0078125 -17.625 69.125 C-23.08983441 72.3864287 -26.97900081 76.93700242 -29 83 C-28.34 83 -27.68 83 -27 83 C-26.89558594 82.41992188 -26.79117188 81.83984375 -26.68359375 81.2421875 C-24.55876681 74.27275513 -17.68832878 69.65203236 -11.6328125 66.25390625 C-6.6640624 63.88748372 -1.53865474 62 4 62 C4 61.34 4 60.68 4 60 C10.6 58.68 17.2 57.36 24 56 C24 55.34 24 54.68 24 54 C24.639375 53.731875 25.27875 53.46375 25.9375 53.1875 C28.33131686 52.11332248 28.33131686 52.11332248 29 49 C29.66 49 30.32 49 31 49 C31 49.66 31 50.32 31 51 C31.66 51 32.32 51 33 51 C36.19649004 59.94256142 37.79008929 68.26631174 33.9140625 77.25 C31.50194984 81.86806184 28.64765552 84.67617224 24 87 C23.34 87 22.68 87 22 87 C22 87.66 22 88.32 22 89 C14.97815226 90.57581861 8.02385448 90.57952708 1 89 C-5.54338658 87.56440803 -12.69860937 86.48720239 -18.9375 89.5 C-22.68153997 92.55635916 -24.26561388 95.56169515 -26 100 C-30.33333333 100 -34.66666667 100 -39 100 C-39.58242307 41.52024368 -39.58242307 41.52024368 -28 22 C-27.38125 20.9275 -26.7625 19.855 -26.125 18.75 C-20.8068767 11.86772279 -11.8336781 3.41638069 -2.9375 2.125 C-1.968125 2.08375 -0.99875 2.0425 0 2 C0 1.34 0 0.68 0 0 Z M-30 83 C-29 85 -29 85 -29 85 Z M-31 85 C-30 89 -30 89 -30 89 Z M-32 90 C-32 91.98 -32 93.96 -32 96 C-31.67 96 -31.34 96 -31 96 C-31 94.02 -31 92.04 -31 90 C-31.33 90 -31.66 90 -32 90 Z " fill="#005FAE" transform="translate(167,336)"/>
<path d="M0 0 C1.34723145 -0.00287018 1.34723145 -0.00287018 2.72167969 -0.00579834 C4.60742475 -0.00715022 6.49317944 -0.00352406 8.37890625 0.00488281 C11.24240298 0.01559658 14.10527246 0.00495335 16.96875 -0.0078125 C18.81250137 -0.00649073 20.65625235 -0.00392797 22.5 0 C23.76602051 -0.00607269 23.76602051 -0.00607269 25.05761719 -0.01226807 C30.70828167 0.03164974 35.77771207 0.91575358 41.25 2.265625 C43.12295271 2.60620334 44.99898853 2.93071086 46.87890625 3.23046875 C47.85150391 3.39095703 48.82410156 3.55144531 49.82617188 3.71679688 C51.82024783 4.04153521 53.81505156 4.36183512 55.81054688 4.67773438 C61.64514312 5.6495218 66.78017901 7.0151156 72.25 9.265625 C73.66272652 9.75628673 75.07865766 10.23801094 76.5 10.703125 C77.24636719 10.950625 77.99273437 11.198125 78.76171875 11.453125 C80.57408262 12.04491728 82.3896455 12.62693929 84.20703125 13.203125 C89.5041666 14.90886921 94.53318807 16.68292145 99.43359375 19.3359375 C101.31226823 20.37051391 101.31226823 20.37051391 103.76953125 20.9921875 C107.27709398 22.79292049 107.95017149 24.94286244 109.5 28.515625 C110.00015625 29.63453125 110.5003125 30.7534375 111.015625 31.90625 C112.17507766 35.06172243 112.82670242 37.93971544 113.25 41.265625 C113.91 41.265625 114.57 41.265625 115.25 41.265625 C115.75636607 43.01379358 116.25484619 44.76424763 116.75 46.515625 C117.16765625 47.97742188 117.16765625 47.97742188 117.59375 49.46875 C118.25 52.265625 118.25 52.265625 118.25 56.265625 C118.91 56.265625 119.57 56.265625 120.25 56.265625 C120.99974294 59.16051186 121.62247865 62.05979219 122.1875 64.99609375 C122.36023438 65.88103516 122.53296875 66.76597656 122.7109375 67.67773438 C123.07250613 69.53928881 123.43185516 71.40127564 123.7890625 73.26367188 C123.96179688 74.14474609 124.13453125 75.02582031 124.3125 75.93359375 C124.54646484 77.14438599 124.54646484 77.14438599 124.78515625 78.37963867 C125.07748882 80.2655612 125.07748882 80.2655612 126.25 81.265625 C130.87279728 107.99011731 130.36823464 138.62764905 123.19140625 164.80078125 C122.42052655 167.6380024 121.76550424 170.44781814 121.1875 173.328125 C120.35658538 177.21062871 118.83843081 180.62547106 117.25 184.265625 C116.48605068 186.918357 115.86425351 189.57235961 115.25 192.265625 C114.59 192.265625 113.93 192.265625 113.25 192.265625 C112.9096875 193.93625 112.9096875 193.93625 112.5625 195.640625 C109.27989382 208.12783637 109.27989382 208.12783637 104.07421875 211.80078125 C101.1803438 213.16647945 98.27854456 214.23019495 95.25 215.265625 C93.91434955 215.75897942 92.57976955 216.25523846 91.24609375 216.75390625 C86.94154661 218.3426539 82.60346477 219.81724276 78.25 221.265625 C77.15300781 221.63816406 76.05601562 222.01070312 74.92578125 222.39453125 C64.05580204 225.80393432 52.79814523 227.2238621 41.54980469 228.84838867 C39.23173884 229.15793571 39.23173884 229.15793571 37.25 230.265625 C35.81700364 230.36509623 34.37954293 230.40391898 32.94311523 230.41088867 C31.60548378 230.42045845 31.60548378 230.42045845 30.24082947 230.43022156 C29.27319168 230.43133438 28.30555389 230.4324472 27.30859375 230.43359375 C26.31175064 230.43692215 25.31490753 230.44025055 24.28785706 230.44367981 C22.17197125 230.44875135 20.05607742 230.45108807 17.94018555 230.45092773 C14.72496011 230.45309969 11.51008589 230.47121266 8.29492188 230.49023438 C6.23698034 230.49317127 4.17903717 230.49515408 2.12109375 230.49609375 C1.16762558 230.50327927 0.21415741 230.51046478 -0.76820374 230.51786804 C-6.70927769 230.49786575 -12.00515218 229.73085011 -17.75 228.265625 C-19.64456402 227.89544207 -21.54142902 227.53662577 -23.44140625 227.1953125 C-24.40498047 227.02128906 -25.36855469 226.84726562 -26.36132812 226.66796875 C-27.33521484 226.49394531 -28.30910156 226.31992187 -29.3125 226.140625 C-30.82553711 225.86798828 -30.82553711 225.86798828 -32.36914062 225.58984375 C-34.82913957 225.14681077 -37.28942346 224.70543665 -39.75 224.265625 C-39.75 223.605625 -39.75 222.945625 -39.75 222.265625 C-41.4825 222.08 -41.4825 222.08 -43.25 221.890625 C-47.53350375 221.36283615 -51.58352672 220.38164463 -55.75 219.265625 C-55.75 218.605625 -55.75 217.945625 -55.75 217.265625 C-56.925625 217.08 -58.10125 216.894375 -59.3125 216.703125 C-66.57124705 215.13272299 -73.12999284 211.52765752 -79.75 208.265625 C-79.75 207.605625 -79.75 206.945625 -79.75 206.265625 C-80.41 206.265625 -81.07 206.265625 -81.75 206.265625 C-82.98385388 203.06638333 -84.2153812 199.8663149 -85.44140625 196.6640625 C-86.18724182 194.7271164 -86.94020927 192.79279709 -87.71484375 190.8671875 C-89.40491855 186.61257133 -90.27936702 182.78370164 -90.75 178.265625 C-91.41 178.265625 -92.07 178.265625 -92.75 178.265625 C-93.25904657 176.39306083 -93.75682455 174.51743159 -94.25 172.640625 C-94.5284375 171.59648437 -94.806875 170.55234375 -95.09375 169.4765625 C-95.74118596 166.30875082 -95.8661292 163.48821033 -95.75 160.265625 C-96.41 160.265625 -97.07 160.265625 -97.75 160.265625 C-103.22769428 128.83808251 -103.22769428 98.69316749 -97.75 67.265625 C-97.09 67.265625 -96.43 67.265625 -95.75 67.265625 C-95.646875 65.96625 -95.54375 64.666875 -95.4375 63.328125 C-94.9781458 59.22583681 -94.0231459 55.64241917 -92.62890625 51.76953125 C-91.60683022 48.85775021 -90.74648985 45.91336783 -89.875 42.953125 C-84.62039651 25.80016649 -84.62039651 25.80016649 -79.75 20.265625 C-77.40260021 19.11493883 -75.18769386 18.16397832 -72.75 17.265625 C-72.08226563 16.99621094 -71.41453125 16.72679687 -70.7265625 16.44921875 C-66.74916751 14.87197591 -63.02418762 13.79989845 -58.75 13.265625 C-58.75 12.605625 -58.75 11.945625 -58.75 11.265625 C-56.83487728 10.75974353 -54.91783078 10.26114109 -53 9.765625 C-51.93265625 9.4871875 -50.8653125 9.20875 -49.765625 8.921875 C-46.75 8.265625 -46.75 8.265625 -42.75 8.265625 C-42.75 7.605625 -42.75 6.945625 -42.75 6.265625 C-41.73015015 6.09957764 -41.73015015 6.09957764 -40.68969727 5.93017578 C-37.56352598 5.41963952 -34.43801581 4.90515825 -31.3125 4.390625 C-30.24322266 4.21660156 -29.17394531 4.04257812 -28.07226562 3.86328125 C-27.01845703 3.68925781 -25.96464844 3.51523437 -24.87890625 3.3359375 C-23.92056885 3.17883301 -22.96223145 3.02172852 -21.97485352 2.85986328 C-20.2109183 2.53482593 -18.44863692 2.19143778 -16.70700073 1.76269531 C-11.06209496 0.37755228 -5.80195123 -0.02783009 0 0 Z M-38.75 13.265625 C-41.69260096 13.99083375 -44.63993133 14.69192107 -47.58984375 15.38671875 C-51.41356572 16.45017665 -55.05194457 17.83388676 -58.75 19.265625 C-59.47533936 19.53528076 -60.20067871 19.80493652 -60.94799805 20.08276367 C-63.18205143 20.91494306 -65.40355123 21.77542916 -67.625 22.640625 C-68.38296875 22.9190625 -69.1409375 23.1975 -69.921875 23.484375 C-74.31503216 25.14423268 -74.31503216 25.14423268 -77.14453125 28.72265625 C-77.34433594 29.56183594 -77.54414062 30.40101563 -77.75 31.265625 C-78.04519531 31.96300781 -78.34039062 32.66039062 -78.64453125 33.37890625 C-81.39629256 39.97142376 -83.52043992 46.70580906 -85.6015625 53.53125 C-86.31291182 55.84434507 -87.05017986 58.14985044 -87.828125 60.44140625 C-89.95997533 66.97245621 -91.04834194 73.40376038 -90.75 80.265625 C-91.41 80.265625 -92.07 80.265625 -92.75 80.265625 C-96.07920267 104.13481916 -97.59279534 130.90125154 -90.75 154.265625 C-90.166166 157.00469024 -89.6737292 159.75775357 -89.1875 162.515625 C-88.23220383 167.95231918 -88.23220383 167.95231918 -86.75 173.265625 C-86.09 173.265625 -85.43 173.265625 -84.75 173.265625 C-84.67652344 174.13574219 -84.67652344 174.13574219 -84.6015625 175.0234375 C-84.15350595 179.70485592 -83.451979 183.84047959 -81.75 188.265625 C-81.09 188.265625 -80.43 188.265625 -79.75 188.265625 C-79.64042969 188.84570312 -79.53085938 189.42578125 -79.41796875 190.0234375 C-78.03380083 197.02126917 -78.03380083 197.02126917 -74.75 203.265625 C-71.151874 205.25287451 -67.85917835 206.265625 -63.75 206.265625 C-63.75 206.925625 -63.75 207.585625 -63.75 208.265625 C-62.77160156 208.59175781 -61.79320312 208.91789063 -60.78515625 209.25390625 C-60.15440186 209.4643457 -59.52364746 209.67478516 -58.8737793 209.89160156 C-57.49158361 210.35195147 -56.10892731 210.81092055 -54.72583008 211.26855469 C-51.83830062 212.22552179 -48.95998299 213.18912677 -46.1015625 214.23046875 C-40.68368446 216.19616096 -35.49676451 216.9176998 -29.75 217.265625 C-29.75 217.925625 -29.75 218.585625 -29.75 219.265625 C-17.74449129 221.22144046 -5.92327374 222.86027145 6.25 223.265625 C7.37535156 223.306875 8.50070313 223.348125 9.66015625 223.390625 C17.9536214 223.54022527 26.16983799 223.00120499 34.4375 222.390625 C35.51821777 222.31223389 36.59893555 222.23384277 37.71240234 222.15307617 C44.97269565 221.57634457 52.08656384 220.5765491 59.25 219.265625 C59.25 218.605625 59.25 217.945625 59.25 217.265625 C60.17619141 217.20955078 60.17619141 217.20955078 61.12109375 217.15234375 C66.23136093 216.75565634 70.72362075 215.97932704 75.53515625 214.23046875 C79.26161259 212.90610225 83.0352143 211.74813201 86.8125 210.578125 C88.2304793 210.13675265 89.64844886 209.695349 91.06640625 209.25390625 C92.11699219 208.92777344 93.16757813 208.60164062 94.25 208.265625 C94.25 207.605625 94.25 206.945625 94.25 206.265625 C95.19875 206.1625 96.1475 206.059375 97.125 205.953125 C100.54107501 205.58023205 100.54107501 205.58023205 102.25 202.265625 C102.25 201.275625 102.25 200.285625 102.25 199.265625 C102.91 199.265625 103.57 199.265625 104.25 199.265625 C104.75559908 197.83008475 105.2542749 196.3921048 105.75 194.953125 C106.0284375 194.15261719 106.306875 193.35210937 106.59375 192.52734375 C107.38933107 190.17793078 107.38933107 190.17793078 107.25 187.265625 C107.91 186.935625 108.57 186.605625 109.25 186.265625 C110.39611133 183.40720258 110.39611133 183.40720258 111.375 180.015625 C111.72820312 178.87609375 112.08140625 177.7365625 112.4453125 176.5625 C113.1624241 173.6244311 113.41917814 171.26571739 113.25 168.265625 C113.91 168.265625 114.57 168.265625 115.25 168.265625 C115.73109963 165.74514708 116.20992603 163.2242713 116.6875 160.703125 C116.88956055 159.64641602 116.88956055 159.64641602 117.09570312 158.56835938 C117.74123485 155.15176463 118.33485178 151.74900317 118.78515625 148.30078125 C119.25 145.265625 119.25 145.265625 120.25 144.265625 C121.74793595 136.16411227 121.40347784 127.74240559 121.38037109 119.53417969 C121.37501063 117.27011419 121.38034526 115.006247 121.38671875 112.7421875 C121.50217796 101.45508049 121.50217796 101.45508049 120.25 90.265625 C119.92 89.935625 119.59 89.605625 119.25 89.265625 C118.88188736 87.49161744 118.56760683 85.70636386 118.27734375 83.91796875 C118.10009766 82.83837891 117.92285156 81.75878906 117.74023438 80.64648438 C117.46663086 78.94202148 117.46663086 78.94202148 117.1875 77.203125 C117.00123047 76.06294922 116.81496094 74.92277344 116.62304688 73.74804688 C116.16175247 70.92114011 115.70424262 68.09367201 115.25 65.265625 C114.59 65.265625 113.93 65.265625 113.25 65.265625 C113.0953125 63.595 113.0953125 63.595 112.9375 61.890625 C112.13840956 55.5316659 110.27448884 49.43496267 107.6875 43.578125 C106.20160302 40.15410153 105.20521334 36.86604452 104.25 33.265625 C103.59 33.265625 102.93 33.265625 102.25 33.265625 C102.085 32.3375 101.92 31.409375 101.75 30.453125 C100.09544346 26.93719235 99.73668353 26.69118645 96.3125 25.390625 C93.73169048 24.55125891 92.00650167 24.265625 89.25 24.265625 C89.25 23.605625 89.25 22.945625 89.25 22.265625 C88.19941406 21.93949219 87.14882812 21.61335938 86.06640625 21.27734375 C85.3904541 21.0669043 84.71450195 20.85646484 84.01806641 20.63964844 C82.54019652 20.17963404 81.06200248 19.72065983 79.58349609 19.26269531 C75.8149174 18.08995288 72.08507198 16.86413217 68.375 15.515625 C63.76209787 13.9363529 59.09453315 13.55892659 54.25 13.265625 C54.25 12.605625 54.25 11.945625 54.25 11.265625 C40.77637915 8.99763437 27.68544077 7.78052012 14.02050781 7.87451172 C11.25015078 7.89062412 8.48125167 7.87452382 5.7109375 7.85546875 C-9.26915899 7.83795937 -24.35750526 8.85910979 -38.75 13.265625 Z " fill="#005FAE" transform="translate(111.75,259.734375)"/>
<path d="M0 0 C0.82177734 -0.00128906 1.64355469 -0.00257813 2.49023438 -0.00390625 C3.34037109 -0.00003906 4.19050781 0.00382812 5.06640625 0.0078125 C5.91267578 0.00394531 6.75894531 0.00007813 7.63085938 -0.00390625 C11.75836577 0.00255813 15.60430731 0.0915405 19.62890625 1.1328125 C19.62890625 1.7928125 19.62890625 2.4528125 19.62890625 3.1328125 C20.22058594 3.29136719 20.81226563 3.44992187 21.421875 3.61328125 C26.77497544 5.19388676 29.99542761 6.71371685 33.62890625 11.1328125 C34.13292969 11.68710937 34.63695312 12.24140625 35.15625 12.8125 C39.32411927 17.7242677 40.79120915 22.42178229 42.0859375 28.69140625 C42.38532399 31.06814109 42.38532399 31.06814109 43.62890625 32.1328125 C44.0815269 38.46950161 43.00339311 43.27436238 40.62890625 49.1328125 C40.38527344 49.76832031 40.14164062 50.40382813 39.890625 51.05859375 C36.40502129 59.03748755 29.81655144 66.09293197 23.62890625 72.1328125 C17.55644703 79.01493295 13.93608447 86.73508576 11.8671875 95.61328125 C11.65685379 96.51024216 11.44652008 97.40720306 11.22981262 98.3313446 C8.81380973 109.61506712 8.8451526 120.95461229 8.81640625 132.4453125 C8.79318752 134.66213319 8.76780737 136.87893232 8.74023438 139.09570312 C8.67832674 144.44141608 8.64263981 149.78676945 8.62890625 155.1328125 C6.64890625 155.1328125 4.66890625 155.1328125 2.62890625 155.1328125 C2.61273254 154.5294104 2.59655884 153.9260083 2.57989502 153.30432129 C2.40586776 146.94284065 2.20681898 140.58247102 1.99414062 134.22216797 C1.91824353 131.85810212 1.84842761 129.49383198 1.78515625 127.12939453 C1.6329638 105.95196787 1.6329638 105.95196787 -4.49902344 85.90820312 C-5.37109375 84.1328125 -5.37109375 84.1328125 -5.37109375 81.1328125 C-6.03109375 81.1328125 -6.69109375 81.1328125 -7.37109375 81.1328125 C-7.74234375 80.2871875 -8.11359375 79.4415625 -8.49609375 78.5703125 C-10.39080039 75.09668366 -12.49562391 72.53113028 -15.1640625 69.6484375 C-16.37109375 68.1328125 -16.37109375 68.1328125 -16.37109375 66.1328125 C-16.96921875 65.86726563 -17.56734375 65.60171875 -18.18359375 65.328125 C-25.15946581 61.5163092 -28.95305276 53.38693547 -31.37109375 46.1328125 C-31.62428918 42.88730738 -31.60239052 39.63717452 -31.62109375 36.3828125 C-31.64171875 35.50109375 -31.66234375 34.619375 -31.68359375 33.7109375 C-31.71747438 28.01899175 -31.00329531 24.18790803 -28.37109375 19.1328125 C-28.00628906 18.39933594 -27.64148438 17.66585938 -27.265625 16.91015625 C-23.50359275 10.51334329 -18.20530014 6.07550901 -11.37109375 3.1328125 C-10.38109375 3.1328125 -9.39109375 3.1328125 -8.37109375 3.1328125 C-8.37109375 2.4728125 -8.37109375 1.8128125 -8.37109375 1.1328125 C-5.51262133 0.31887733 -2.96870943 0.00450536 0 0 Z " fill="#005FAE" transform="translate(118.37109375,280.8671875)"/>
<path d="M0 0 C3.73375597 0.24483646 6.30216377 1.20373945 9.7109375 2.71875 C10.77054688 3.1828125 11.83015625 3.646875 12.921875 4.125 C13.71851563 4.4859375 14.51515625 4.846875 15.3359375 5.21875 C15.3359375 5.87875 15.3359375 6.53875 15.3359375 7.21875 C16.0784375 7.445625 16.8209375 7.6725 17.5859375 7.90625 C20.91291158 9.49412399 22.14810057 11.27884412 24.3359375 14.21875 C25.6971875 15.5490625 25.6971875 15.5490625 27.0859375 16.90625 C29.3359375 19.21875 29.3359375 19.21875 29.3359375 21.21875 C29.9959375 21.21875 30.6559375 21.21875 31.3359375 21.21875 C32.43631672 23.25259698 33.51531453 25.29427175 34.5859375 27.34375 C35.18921875 28.48070312 35.7925 29.61765625 36.4140625 30.7890625 C42.45989759 43.96753602 42.97998134 56.41746673 43.0859375 70.65625 C43.11417356 72.55666683 43.14411126 74.45705917 43.17578125 76.35742188 C43.2419042 80.59376558 43.29636289 84.82981447 43.32067871 89.06661987 C43.33512764 91.10452543 43.36865808 93.14226966 43.40332031 95.17993164 C43.3359375 98.21875 43.3359375 98.21875 42.3359375 100.21875 C40.6859375 100.21875 39.0359375 100.21875 37.3359375 100.21875 C37.22378906 99.12820313 37.22378906 99.12820313 37.109375 98.015625 C35.77833411 87.83707704 32.20804872 78.95974885 25.3359375 71.21875 C23.48258047 69.83780904 23.48258047 69.83780904 21.5859375 68.90625 C20.5134375 68.349375 19.4409375 67.7925 18.3359375 67.21875 C18.3359375 66.55875 18.3359375 65.89875 18.3359375 65.21875 C17.6759375 65.115625 17.0159375 65.0125 16.3359375 64.90625 C13.3359375 64.21875 13.3359375 64.21875 10.0234375 62.90625 C3.35532075 60.30811622 -3.71995565 58.88713931 -10.6640625 57.21875 C-11.99788783 56.88739088 -13.33154116 56.55531467 -14.6640625 56.21875 C-14.6640625 55.55875 -14.6640625 54.89875 -14.6640625 54.21875 C-15.3446875 54.1775 -16.0253125 54.13625 -16.7265625 54.09375 C-22.15267875 52.47746005 -26.15521535 48.5664521 -29.1015625 43.78125 C-31.85740663 37.78875489 -30.96617543 30.66382585 -30.6640625 24.21875 C-30.0040625 24.21875 -29.3440625 24.21875 -28.6640625 24.21875 C-28.5815625 23.373125 -28.4990625 22.5275 -28.4140625 21.65625 C-26.80560433 14.28415005 -23.18827161 10.1304343 -17.25390625 5.7265625 C-13.60980483 3.60495896 -9.94931918 2.62579244 -5.8515625 1.7265625 C-3.1399512 1.09708131 -2.90916964 0.2388761 0 0 Z " fill="#005FAE" transform="translate(76.6640625,335.78125)"/>
<path d="M0 0 C0.66 0 1.32 0 2 0 C2.7425 0.763125 3.485 1.52625 4.25 2.3125 C8.98914521 6.94393737 13.96621284 8.41783462 20.375 9.6875 C22.24285156 10.06455078 22.24285156 10.06455078 24.1484375 10.44921875 C25.08945313 10.63097656 26.03046875 10.81273437 27 11 C27 11.66 27 12.32 27 13 C28.010625 13.12375 29.02125 13.2475 30.0625 13.375 C33.87937612 13.98085335 37.31500112 14.87193912 41 16 C41 16.66 41 17.32 41 18 C41.804375 18.185625 42.60875 18.37125 43.4375 18.5625 C48.27107189 20.51288866 52.21456929 23.42177181 56 27 C56.495 28.485 56.495 28.485 57 30 C57.66 30.33 58.32 30.66 59 31 C59.76015349 32.97353057 60.43603014 34.98005154 61.0625 37 C61.99738786 40.79446043 61.99738786 40.79446043 64 44 C64.125 47 64.125 47 64 50 C63 51 63 51 60.4375 51.0625 C59.633125 51.041875 58.82875 51.02125 58 51 C57.8040625 50.46890625 57.608125 49.9378125 57.40625 49.390625 C55.32564948 44.47610308 53.32670738 41.73745297 48.3671875 39.61328125 C43.96784816 38.47351842 39.50101514 38.51746586 35 39 C34.67 39.33 34.34 39.66 34 40 C26.32261329 41.30370718 17.5494296 42.26482888 10 40 C10 39.34 10 38.68 10 38 C9.154375 37.835 8.30875 37.67 7.4375 37.5 C2.16092965 35.19749657 -1.38521029 31.29800271 -3.921875 26.1171875 C-6.08269291 19.13832966 -4.93061641 10.93041788 -3 4 C-2.34 4 -1.68 4 -1 4 C-0.67 2.68 -0.34 1.36 0 0 Z " fill="#005FAE" transform="translate(49,385)"/>
<path d="M0 0 C1.60517097 0.08733576 3.20921662 0.19552224 4.8125 0.3125 C6.15248047 0.39951172 6.15248047 0.39951172 7.51953125 0.48828125 C10.34434761 1.07103864 11.31475009 1.69037881 13 4 C13.36776789 8.13738871 12.74677365 11.93423237 12 16 C11.66140041 18.33257494 11.3267961 20.66574212 11 23 C9.02 22.67 7.04 22.34 5 22 C5 19.36 5 16.72 5 14 C4.34 13.67 3.68 13.34 3 13 C2.67 15.64 2.34 18.28 2 21 C0.35 21 -1.3 21 -3 21 C-5.20018532 14.35263158 -2.38915031 6.31418295 0 0 Z M5 6 C5 6.99 5 7.98 5 9 C5.66 9 6.32 9 7 9 C7.33 8.01 7.66 7.02 8 6 C7.01 6 6.02 6 5 6 Z " fill="#005FAE" transform="translate(81,448)"/>
<path d="M0 0 C1.093125 0.0825 2.18625 0.165 3.3125 0.25 C3.3125 0.91 3.3125 1.57 3.3125 2.25 C4.3025 2.25 5.2925 2.25 6.3125 2.25 C8.32298724 6.27097449 7.44421051 11.03180627 6.3125 15.25 C5.38021211 17.62039154 4.36036131 19.92648143 3.3125 22.25 C1.87413249 22.13541307 0.43679034 22.00790884 -1 21.875 C-1.80050781 21.80539062 -2.60101563 21.73578125 -3.42578125 21.6640625 C-5.6875 21.25 -5.6875 21.25 -8.6875 19.25 C-9.52317381 14.17305694 -9.22116823 8.78393262 -6.6875 4.25 C-6.295625 3.486875 -5.90375 2.72375 -5.5 1.9375 C-3.6875 0.25 -3.6875 0.25 0 0 Z M-0.6875 5.25 C-1.0175 6.57 -1.3475 7.89 -1.6875 9.25 C-0.6975 9.25 0.2925 9.25 1.3125 9.25 C1.3125 7.93 1.3125 6.61 1.3125 5.25 C0.6525 5.25 -0.0075 5.25 -0.6875 5.25 Z M-3.6875 14.25 C-3.6875 14.91 -3.6875 15.57 -3.6875 16.25 C-2.3675 15.92 -1.0475 15.59 0.3125 15.25 C-1.0075 14.92 -2.3275 14.59 -3.6875 14.25 Z " fill="#005FAE" transform="translate(69.6875,443.75)"/>
<path d="M0 0 C1.66611905 -0.042721 3.33382885 -0.04063832 5 0 C6 1 6 1 6.09765625 4.37890625 C6.09098369 5.77347077 6.07902532 7.16801743 6.0625 8.5625 C6.05798828 9.27341797 6.05347656 9.98433594 6.04882812 10.71679688 C6.03700864 12.47790013 6.01907263 14.23896036 6 16 C6.66 11.38 7.32 6.76 8 2 C10.31 2 12.62 2 15 2 C15.04254356 3.99954746 15.04080783 6.00041636 15 8 C14.67 8.33 14.34 8.66 14 9 C13.84289112 10.43434586 13.72395279 11.87297244 13.625 13.3125 C13.32585972 16.03511008 12.99307605 18.01669894 11.9375 20.5625 C9.27610474 22.53708358 7.18165585 22.39737985 3.9375 22.3359375 C2 22 2 22 -1 20 C-1.328125 17.20703125 -1.328125 17.20703125 -1.25 13.8125 C-1.22421875 12.64976562 -1.1984375 11.48703125 -1.171875 10.2890625 C-0.98873392 6.78440815 -0.64129872 3.44698064 0 0 Z " fill="#005FAE" transform="translate(98,450)"/>
<path d="M0 0 C1.48693359 0.00386719 1.48693359 0.00386719 3.00390625 0.0078125 C3.99261719 0.00523437 4.98132813 0.00265625 6 0 C8.56640625 0.1328125 8.56640625 0.1328125 10.56640625 1.1328125 C12.20403563 6.5005977 14.17273604 13.92015293 11.56640625 19.1328125 C8.84375 19.765625 8.84375 19.765625 5.50390625 20.2578125 C4.39917969 20.42539062 3.29445312 20.59296875 2.15625 20.765625 C1.30160156 20.88679688 0.44695312 21.00796875 -0.43359375 21.1328125 C-0.56636719 20.02421875 -0.69914063 18.915625 -0.8359375 17.7734375 C-1.01419132 16.3098798 -1.19258403 14.84633901 -1.37109375 13.3828125 C-1.45810547 12.65320313 -1.54511719 11.92359375 -1.63476562 11.171875 C-2.13275467 7.02499199 -2.13275467 7.02499199 -3.02954102 2.95214844 C-3.16287842 2.35176758 -3.29621582 1.75138672 -3.43359375 1.1328125 C-2.43359375 0.1328125 -2.43359375 0.1328125 0 0 Z M4.56640625 5.1328125 C4.23640625 5.7928125 3.90640625 6.4528125 3.56640625 7.1328125 C4.22640625 7.1328125 4.88640625 7.1328125 5.56640625 7.1328125 C5.23640625 6.4728125 4.90640625 5.8128125 4.56640625 5.1328125 Z M4.56640625 12.1328125 C5.22640625 13.4528125 5.88640625 14.7728125 6.56640625 16.1328125 C6.56640625 14.8128125 6.56640625 13.4928125 6.56640625 12.1328125 C5.90640625 12.1328125 5.24640625 12.1328125 4.56640625 12.1328125 Z " fill="#005FAE" transform="translate(141.43359375,451.8671875)"/>
<path d="M0 0 C0.66 0.33 1.32 0.66 2 1 C2.75 3.4375 2.75 3.4375 3 6 C2.34 6.66 1.68 7.32 1 8 C-0.32 8 -1.64 8 -3 8 C-3 7.01 -3 6.02 -3 5 C-3.33 5.33 -3.66 5.66 -4 6 C-3.91036938 7.69141656 -3.75422324 9.37959602 -3.5625 11.0625 C-3.46066406 11.98160156 -3.35882813 12.90070313 -3.25390625 13.84765625 C-3.17011719 14.55792969 -3.08632812 15.26820313 -3 16 C-2.67 14.35 -2.34 12.7 -2 11 C-0.02 11 1.96 11 4 11 C4 13.64 4 16.28 4 19 C1.08291076 20.98362069 -0.12380904 20.9876191 -3.75 20.625 C-5.35875 20.315625 -5.35875 20.315625 -7 20 C-9.39748106 14.26689311 -10.58411954 9.19518473 -11 3 C-10.34 3 -9.68 3 -9 3 C-8.67 2.01 -8.34 1.02 -8 0 C-4.67803635 -1.10732122 -3.31749961 -0.85064093 0 0 Z " fill="#005FAE" transform="translate(166,449)"/>
<path d="M0 0 C2.0245738 1.93254772 3.42105792 3.63158688 5 6 C5 6.99 5 7.98 5 9 C5.66 9 6.32 9 7 9 C7.67119549 10.4562545 8.33681807 11.91507867 9 13.375 C9.556875 14.59316406 9.556875 14.59316406 10.125 15.8359375 C11 18 11 18 11 20 C8.125 20.1875 8.125 20.1875 5 20 C4.34 19.01 3.68 18.02 3 17 C2.8453125 18.175625 2.8453125 18.175625 2.6875 19.375 C2 22 2 22 -1 24 C-1.99 24 -2.98 24 -4 24 C-4.09087891 22.35451172 -4.09087891 22.35451172 -4.18359375 20.67578125 C-4.26804498 19.22134346 -4.35269066 17.76691695 -4.4375 16.3125 C-4.47681641 15.59126953 -4.51613281 14.87003906 -4.55664062 14.12695312 C-4.78185678 10.33292718 -5.12839305 6.71348508 -6 3 C-4.02 2.01 -2.04 1.02 0 0 Z " fill="#005FAE" transform="translate(177,444)"/>
<path d="M0 0 C1.77007714 -0.08114106 3.54122098 -0.13925505 5.3125 -0.1875 C6.29863281 -0.22230469 7.28476563 -0.25710938 8.30078125 -0.29296875 C11 0 11 0 12.83203125 1.32421875 C14.64548905 3.92613646 14.38474673 5.92202612 14 9 C12.875 10.8125 12.875 10.8125 11 12 C7.8125 12.6875 7.8125 12.6875 5 13 C5 15.64 5 18.28 5 21 C3.35 21 1.7 21 0 21 C-1.19600901 16.50832172 -0.9185704 12.26730207 -0.5625 7.6875 C-0.51029297 6.94693359 -0.45808594 6.20636719 -0.40429688 5.44335938 C-0.27549848 3.62847291 -0.13856738 1.81416675 0 0 Z M6 5 C6.33 5.99 6.66 6.98 7 8 C7.33 7.01 7.66 6.02 8 5 C7.34 5 6.68 5 6 5 Z " fill="#005FAE" transform="translate(115,453)"/>
</svg>
